<?xml version="1.0" standalone="no"?>
<!DOCTYPE svg PUBLIC "-//W3C//DTD SVG 20010904//EN"
 "http://www.w3.org/TR/2001/REC-SVG-20010904/DTD/svg10.dtd">
<svg version="1.0" xmlns="http://www.w3.org/2000/svg"
 width="362.000000pt" height="362.000000pt" viewBox="0 0 362.000000 362.000000"
 preserveAspectRatio="xMidYMid meet">
<metadata>
Created by potrace 1.11, written by Peter Selinger 2001-2013
</metadata>
<g transform="translate(0.000000,362.000000) scale(0.100000,-0.100000)"
fill="#000000" stroke="none">
<path d="M1648 3535 c-1 -1 -30 -6 -63 -9 -33 -4 -67 -9 -75 -11 -8 -2 -31 -7
-50 -10 -19 -3 -53 -11 -75 -17 -22 -6 -44 -12 -50 -13 -38 -9 -123 -38 -196
-68 -404 -167 -739 -482 -922 -867 -43 -90 -131 -330 -122 -330 3 0 0 -11 -5
-25 -5 -14 -12 -46 -16 -72 -3 -27 -8 -51 -10 -55 -21 -35 -24 -447 -4 -553 7
-38 14 -79 16 -90 3 -11 7 -33 10 -50 11 -65 86 -270 133 -368 57 -116 95
-177 178 -291 63 -87 264 -294 313 -323 16 -9 30 -21 30 -25 0 -4 6 -8 14 -8
8 0 16 -4 18 -8 5 -13 113 -83 198 -129 73 -40 270 -126 270 -118 0 2 15 -2
33 -10 36 -15 182 -51 243 -61 124 -18 185 -22 334 -18 91 2 179 6 196 8 245
39 482 123 670 236 49 29 93 57 99 61 5 5 46 36 90 71 191 147 359 350 476
575 43 81 105 228 113 268 1 6 10 35 19 66 46 153 62 278 62 479 0 256 -32
427 -123 655 -54 136 -176 358 -212 385 -4 3 -9 10 -11 16 -12 34 -221 255
-289 306 -19 14 -45 35 -56 46 -12 12 -25 18 -28 15 -3 -4 -6 -1 -6 5 0 7 -6
12 -13 12 -7 0 -19 9 -27 20 -8 11 -19 20 -25 20 -5 0 -30 14 -55 31 -104 70
-391 189 -515 213 -16 3 -52 10 -78 16 -27 5 -65 12 -85 15 -41 6 -398 15
-404 10z"/>
</g>
</svg>
